<svg xmlns="http://www.w3.org/2000/svg" viewBox="0 0 24 24">
  <g fill="currentColor" fill-opacity=".5">
    <path d="M15.78 11.63c-.07.58-.17 1.1-.31 1.6a12 12 0 0 1 4.59 1.39c.12-.51.2-1.02.27-1.5a12.08 12.08 0 0 0-4.55-1.49z"/>
    <path d="M14.95 0a.2.2 0 0 0-.13.07c-.08.09-.09.17 0 .41.54 2.35.85 5.18 1 7.19a13.25 13.25 0 0 0-5.53.02l-.2.04h-.02l-.38.1c-.06 0-.1.02-.16.03a21.7 21.7 0 0 0-1.02.27C5.01 9.1 1.89 11.83.86 15l-.07.2a6.83 6.83 0 0 0-.15 3.37C1.34 21.88 4.42 24 8.5 24h.46l.24-.02h.11l.32-.03h.02c1.63-.15 3.14-.63 4.65-1.46a12.29 12.29 0 0 0 6.03-9.37c.85.46 1.63 1 2.4 1.53.74.5.9.32.69-.24a10.46 10.46 0 0 0-2.96-4.44c-.15-3.31-2.3-7.6-4.59-9.4-.52-.42-.77-.58-.92-.57zm-.68 11.55c.53 0 1.03.03 1.51.09-.33 2.66-1.39 4.3-3.08 5.46a6.63 6.63 0 0 1-3.63 1.25h-.59a5.2 5.2 0 0 1-.24-.02h-.02a4.5 4.5 0 0 1-.5-.1h-.05a3.8 3.8 0 0 1-.4-.12l-.08-.03a3 3 0 0 1-.2-.09s-.02 0-.03-.02a2.54 2.54 0 0 1-.13-.07l-.02-.01a2.27 2.27 0 0 1-.13-.08l-.03-.02a2.04 2.04 0 0 1-.12-.1l-.02-.01a1.7 1.7 0 0 1-.22-.22l-.02-.03a1.6 1.6 0 0 1-.11-.16l-.02-.03a1.52 1.52 0 0 1-.09-.19l-.01-.03-.03-.07-.01-.04-.03-.07v-.04c-.02-.02-.02-.05-.03-.08v-.02a1.97 1.97 0 0 1-.05-.48v-.18l.01-.02c0-.06.02-.11.03-.17v-.04l.05-.16v-.02l.06-.17v-.02l.08-.17v-.02l.2-.36.01-.01.12-.18.1-.14.1-.11.08-.1.1-.11.08-.09.19-.18.1-.09.12-.1a6.65 6.65 0 0 1 .36-.29l.1-.08.15-.1.1-.06.3-.2.1-.05a9.12 9.12 0 0 1 .77-.4l.11-.05.72-.3c.04 0 .07-.02.1-.03a11.16 11.16 0 0 1 .56-.18l.12-.03.23-.07a11.63 11.63 0 0 1 3.23-.39z"/>
  </g>
</svg>
