<?xml version="1.0" encoding="UTF-8" standalone="no"?>
<svg
   xmlns:dc="http://purl.org/dc/elements/1.1/"
   xmlns:cc="http://creativecommons.org/ns#"
   xmlns:rdf="http://www.w3.org/1999/02/22-rdf-syntax-ns#"
   xmlns:svg="http://www.w3.org/2000/svg"
   xmlns="http://www.w3.org/2000/svg"
   id="svg"
   version="1.1"
   width="650"
   height="320"
   viewBox="0 0 650 320.00001">
  <metadata
     id="metadata10">
    <rdf:RDF>
      <cc:Work
         rdf:about="">
        <dc:format>image/svg+xml</dc:format>
        <dc:type
           rdf:resource="http://purl.org/dc/dcmitype/StillImage" />
        <dc:title></dc:title>
      </cc:Work>
    </rdf:RDF>
  </metadata>
  <defs
     id="defs8" />
  <path
     id="path944"
     style="fill:#008000;fill-opacity:0.513605"
     d="m 559.90768,127.44795 c -0.74794,6.2165 -1.83491,11.94964 -3.29297,17.19922 19.44247,1.85481 35.23168,7.56592 49.28125,15.05078 1.26567,-5.54313 2.18722,-10.99151 2.84961,-16.27735 -13.97001,-7.71679 -29.5922,-13.75507 -48.83789,-15.97265 z" />
  <g
     id="g905"
     transform="translate(273.29558,299.73305)">
    <path
       id="path861"
       d="m -100.97291,-25.48638 c -11.43899,-0.30153 -21.9375,9.03698 -21.9375,21.2519504 0,19.0709996 23.146585,28.4718096 36.642585,14.8828096 11.015,-11.09199957 6.61254,-29.58759 -8.31446,-34.93359 -2.12219,-0.76 -4.27229,-1.14533 -6.390625,-1.20117 z m -0.0391,10.1582 c 8.830995,0.3334 14.370645,11.4319404 7.509765,18.8046904 -5.308,5.703 -14.467165,4.34756 -17.910155,-2.64843997 -2.984,-6.06500003 0.12641,-13.59566043 6.4414,-15.59766043 1.36938,-0.434 2.69741,-0.60622 3.95899,-0.55859 z" />
    <path
       id="path859"
       d="m 103.83763,-24.8067 c -1.13996,0.0053 -2.34673,0.01877 -3.70897,0.04102 l -5.527345,0.08984 V -4.2598196 16.15619 l 0.74218,0.19922 c 1.086,0.292 8.263275,0.24146 8.738275,-0.06054 0.29301,-0.186 0.4311,-2.0788 0.4961,-6.8417996 l 0.0898,-6.58594 6.26953,-0.16601 c 5.148,-0.135 6.56788,-0.27869 7.92188,-0.80469 14.246,-5.535 11.10887,-25.8946104 -4.07813,-26.4746104 -4.69425,-0.17925 -7.52345,-0.24445 -10.94336,-0.22852 z m 4.28125,8.40625 c 3.71115,-0.03501 8.41099,1.24954 9.30274,2.92579 2.495,4.6880004 -0.30186,7.2656204 -7.88086,7.2656204 H 104.5017 V -10.96685 c 0,-3.497 0.11006,-4.80183 0.41406,-4.92383 0.84,-0.339 1.96608,-0.49809 3.20312,-0.50977 z" />
    <path
       id="path857"
       d="m 23.704825,-24.80474 c -1.1465,0.0045 -2.3304,0.01706 -3.6289,0.03906 l -5.36329,0.0918 V -4.2598196 16.15619 l 0.74414,0.19922 c 1.071,0.287 8.25861,0.24427 8.72461,-0.05273 0.277,-0.175 0.4241,-2.20175 0.4961,-6.8437496 l 0.10156,-6.5918 6.43555,-0.19336 c 4.892,-0.146 6.7892,-0.32595 7.9082,-0.75195 14.082,-5.363 11.01674,-25.9372804 -3.94726,-26.4882804 -4.92,-0.1815 -8.03121,-0.25169 -11.47071,-0.23828 z m 4.88867,8.64648 c 2.65811,-0.01663 6.03438,0.26141 6.9375,0.72266 3.292,1.679 3.60711,6.7090804 0.53711,8.5800804 -0.93,0.568 -1.68325,0.64353 -6.28125,0.64453 l -5.22265,0.00195 0.10742,-4.6328104 c 0.085,-3.675 0.20956,-4.69831 0.60156,-4.94531 0.38813,-0.24488 1.72545,-0.36112 3.32031,-0.3711 z" />
    <path
       id="path855"
       d="m -170.41236,-24.80279 c -0.76795,0.0054 -1.39242,0.01967 -1.91992,0.04492 l -2.06446,0.09766 -0.0195,4.35742 c -0.107,22.1400004 0.0625,36.3577 0.4375,36.5957 0.619,0.393 16.21727,0.32107 18.69727,-0.08593 16.766,-2.753 23.38422,-22.8830796 11.44922,-34.83008 -4.416,-4.421 -7.60864,-5.7216 -14.55664,-5.9336 -6.12675,-0.186 -9.71958,-0.26217 -12.02344,-0.24609 z m 8.03906,8.37891 c 3.13256,-0.05668 9.0408,1.62673 10.9668,3.55273 8.174,8.1740004 2.43192,20.7611304 -9.33008,20.4531304 l -3.59375,-0.09375 -0.0859,-11.38477 c -0.047,-6.2610004 -0.009,-11.5859804 0.0859,-11.8339804 0.177,-0.46075 0.91284,-0.67447 1.95703,-0.69336 z" />
    <path
       d="m 75.359155,-4.1854296 0.085,20.3399996 -0.745,0.2 c -0.966,0.259 -7.782,0.259 -8.748,0 l -0.743,-0.199 V -4.0474296 c 0,-11.1120004 0.103,-20.3060004 0.229,-20.4320004 0.125,-0.126 2.39,-0.188 5.033,-0.138 l 4.804,0.091 0.085,20.3410004"
       id="path881" />
    <path
       d="m 166.55015,-24.69143 h 4.249 v 4.286 4.285 l -9.653,0.088 -9.654,0.087 v 3.631 3.6300004 l 7.756,0.165 7.756,0.165 0.092,4.208 0.092,4.20800003 -3.062,0.025 c -1.685,0.013 -4.994,0.004 -7.354,-0.022 -5.817,-0.062 -5.445,-0.335 -5.445,3.98799997 v 3.59 l 9.654,0.087 9.653,0.088 0.092,4.1659996 c 0.091,4.094 0.079,4.171 -0.66,4.369 -0.98,0.263 -27.765,0.272 -28.448,0.01 -0.468,-0.18 -0.522,-2.304 -0.522,-20.6219996 V -24.68143 l 9.654,-0.103 c 5.309,-0.057 10.08,-0.059 10.602,-0.005 0.522,0.054 2.861,0.098 5.198,0.098"
       id="path879" />
    <path
       d="m -38.983845,-24.83043 c 4.684,1.213 8.885,3.922 11.72,7.557 1.721,2.207 1.911,1.883 -2.678,4.57 -4.327,2.533 -4.4,2.548 -5.696,1.181 -7.235,-7.637 -19.378,-3.079 -19.435,7.2930004 -0.054,9.832 11.199,14.9189996 18.363,8.301 l 1.911,-1.764 2.066,1.147 c 7.731,4.294 7.414,3.683 3.786,7.3109996 -13.102,13.102 -35.364,4.645 -36.432,-13.8399996 -0.817,-14.1430004 12.719,-25.3000004 26.395,-21.7560004"
       id="path871" />
  </g>
  <path
     id="path914"
     style="fill:#008000;fill-opacity:0.513605"
     d="m 529.6411,81.728256 c -16.44673,0.25401 -32.09269,3.3193 -47.75,7.82617 -51.15853,14.347324 -94.81108,63.771684 -84.45508,112.929694 7.515,35.667 40.55158,58.60098 84.39258,58.58398 4.19105,-0.002 8.29945,-0.18825 12.3418,-0.5625 v -61.01758 c -17.05377,2.25403 -32.99533,-1.82758 -38.15625,-12.34375 -12.736,-25.954 29.70512,-58.24737 79.32812,-60.35937 45.85863,-2.32438 73.27077,14.91709 99.17383,33.29687 7.9966,5.29273 9.60567,3.4412 7.41992,-2.66992 -6.431,-17.952 -14.9242,-31.6084 -27.4082,-44.0664 -19.28902,-17.640994 -30.80597,-22.462484 -54.24219,-28.742194 -10.62043,-2.16799 -20.7765,-3.02741 -30.64453,-2.875 z" />
  <path
     id="path916"
     style="fill:#800000;fill-opacity:0.513605"
     d="m 551.04544,1.7575531 c -0.54339,0.04566 -0.9766,0.2950937 -1.3711,0.7148437 -0.937,0.998 -0.94932,1.8237192 -0.0684,4.5117188 5.786,25.3245984 9.13502,55.9677654 10.67969,77.6191404 4.51076,55.707024 -7.52394,84.108654 -33.35937,101.929684 -23.736,17.813 -62.30711,18.14533 -70.91211,0.61133 -10.40603,-21.20588 16.02798,-46.63508 53.11328,-56.38477 V 83.470443 c -9.17824,1.377741 -18.20632,3.484743 -27.23633,6.083985 -51.15853,14.347332 -94.81108,63.771682 -84.45508,112.929682 7.515,35.667 40.55158,58.60099 84.39258,58.58399 22.28,-0.009 42.23277,-5.22353 62.25976,-16.26953 61.88511,-37.37071 67.41666,-98.94535 66.08918,-134.81955 C 608.85006,74.104824 585.66111,27.54324 560.93212,7.8122406 555.30637,3.323491 552.67558,1.6205851 551.0454,1.7575531 Z" />
  <path
     id="path931"
     style="fill:#000000;fill-opacity:0.97619"
     d="m 155.14205,0.00759946 c -0.5434,0.0457 -0.9766,0.29509 -1.3711,0.71484 -0.937,0.99800004 -0.9493,1.82372004 -0.068,4.51172004 5.786,25.3245995 9.135,55.9677695 10.6797,77.6191395 4.5108,55.707031 -7.5239,84.108661 -33.35941,101.929681 -23.736,17.813 -62.307099,18.14533 -70.912099,0.61133 -10.405989,-21.20587 16.028,-46.63507 53.113299,-56.38476 V 81.720489 c -9.1782,1.37774 -18.206298,3.48474 -27.236298,6.08399 -51.15854,14.347331 -94.8110903,63.771681 -84.4550903,112.929671 7.515,35.667 40.5515803,58.60099 84.3925903,58.58399 22.279998,-0.009 42.232798,-5.22353 62.259708,-16.26953 61.8852,-37.37071 67.4167,-98.94534 66.0892,-134.81954 -1.3275,-35.874201 -24.5164,-82.435781 -49.2454,-102.1667805 -5.6257,-4.48875 -8.2565,-6.19166004 -9.8867,-6.05469004 z" />
</svg>
