<svg xmlns="http://www.w3.org/2000/svg" viewBox="0 0 256 256">
  <g fill="green" fill-opacity=".5">
    <path d="M168.11 124.68c-.72 6-1.77 11.52-3.17 16.58 18.74 1.8 33.96 7.3 47.5 14.51 1.23-5.34 2.12-10.6 2.76-15.69-13.47-7.44-28.53-13.26-47.09-15.4z"/>
    <path
        d="M159.57 3.5c-.53.05-.94.3-1.32.7-.9.96-.92 1.75-.07 4.35 5.58 24.41 8.8 53.95 10.3 74.83a136.24 136.24 0 0 0-29.55-2.78 152.14 152.14 0 0 0-27.6 3.05l-2.07.41-.23.05c-1.32.28-2.63.57-3.94.87l-1.64.39a223.41 223.41 0 0 0-10.55 2.78c-36.22 10.16-68.54 38.55-79.2 71.7l-.65 2.11c-3.31 11.35-4.07 23.21-1.57 35.06 7.24 34.39 39.1 56.5 81.36 56.48 1.2 0 2.4-.02 3.6-.05l1.14-.04 2.44-.11 1.21-.07c1.1-.07 2.2-.16 3.3-.26h.17l.04-.01c16.82-1.56 32.45-6.5 48.12-15.15 43.64-26.35 58.2-65.18 62.38-97.67 8.76 4.84 16.86 10.37 24.8 16 7.7 5.1 9.26 3.32 7.15-2.57-6.2-17.3-14.38-30.47-26.42-42.48a198.76 198.76 0 0 0-4.22-3.75c-1.48-34.52-23.72-79.06-47.45-98-5.42-4.32-7.96-5.96-9.53-5.83zm-7.06 120.34c5.5 0 10.7.32 15.67.9-3.45 27.72-14.37 44.83-31.86 56.9-9.16 6.88-20.61 11.04-31.58 12.5a67.2 67.2 0 0 1-6.04.52h-.23c-.87.04-1.74.05-2.6.05h-.49c-.78-.02-1.56-.04-2.33-.08l-.5-.03c-.82-.05-1.63-.12-2.43-.2l-.26-.03c-1.8-.2-3.53-.5-5.18-.88l-.47-.11a39.19 39.19 0 0 1-4.16-1.27l-.82-.3a30.96 30.96 0 0 1-1.97-.88l-.4-.2c-.46-.23-.91-.47-1.35-.73l-.25-.15a20.9 20.9 0 0 1-1.26-.82l-.33-.23c-.43-.3-.84-.63-1.24-.96l-.23-.2a17.7 17.7 0 0 1-2.25-2.32l-.18-.21a16.6 16.6 0 0 1-1.19-1.73l-.17-.29a15.91 15.91 0 0 1-.95-1.94l-.15-.36c-.1-.24-.2-.49-.28-.73l-.14-.4-.24-.74-.11-.38c-.08-.28-.16-.57-.22-.85l-.07-.26a20.68 20.68 0 0 1-.5-4.94l.02-.24c.01-.54.05-1.09.1-1.63l.03-.28c.07-.58.16-1.16.28-1.74l.07-.36c.12-.6.26-1.18.43-1.77l.05-.14c.17-.58.36-1.17.58-1.75l.08-.22c.23-.6.48-1.2.75-1.8l.11-.25a34.53 34.53 0 0 1 2.01-3.69l.1-.17c.4-.62.81-1.23 1.25-1.85l.03-.05c.33-.46.69-.92 1.04-1.37.31-.4.64-.8.97-1.2l.78-.94c.37-.42.76-.84 1.15-1.25a58.6 58.6 0 0 1 2.73-2.76l1.05-.95c.4-.35.78-.7 1.2-1.05a68.88 68.88 0 0 1 3.7-2.96l1.15-.83c.48-.35.96-.7 1.45-1.03.36-.25.73-.48 1.1-.72 1-.67 2.04-1.32 3.1-1.96l1.08-.65a94.24 94.24 0 0 1 6.01-3.21l1.92-.94 1.11-.5c2.42-1.1 4.92-2.12 7.5-3.06l.97-.36a115.03 115.03 0 0 1 5.86-1.91l1.17-.34 2.45-.68h.03c8-2.11 16.52-3.47 25.27-3.84 2.76-.14 5.46-.2 8.08-.2z"/>
  </g>
</svg>
